<svg version="1.1" id="Layer_1" xmlns="http://www.w3.org/2000/svg" xmlns:xlink="http://www.w3.org/1999/xlink" x="0px" y="0px"
	 width="100%" viewBox="0 0 500 500" enable-background="new 0 0 500 500" xml:space="preserve">
<path fill="#08223D" opacity="1.000000" stroke="none" 
	d="
M315.000000,501.000000 
	C210.000031,501.000000 105.500053,501.000000 1.000056,501.000000 
	C1.000037,334.333405 1.000037,167.666794 1.000019,1.000146 
	C167.666565,1.000097 334.333130,1.000097 500.999756,1.000049 
	C500.999847,167.666519 500.999847,334.333038 500.999939,500.999786 
	C439.166656,501.000000 377.333344,501.000000 315.000000,501.000000 
M274.396393,410.666412 
	C274.693237,410.530548 274.788208,410.308380 274.919739,409.089783 
	C274.947906,390.503113 275.018555,371.916412 274.991333,353.329834 
	C274.967773,337.237457 274.833160,321.145264 274.920593,304.122437 
	C274.922791,291.403656 274.924988,278.684875 275.842712,265.700500 
	C290.668182,265.700500 305.493622,265.700500 320.319092,265.700500 
	C320.396301,265.260468 320.473541,264.820465 320.550781,264.380432 
	C297.798950,240.629684 275.047119,216.878937 252.052322,192.874557 
	C229.000015,217.025452 206.334808,240.770813 182.659393,265.574524 
	C185.803284,265.574524 187.409317,265.574524 189.015366,265.574524 
	C199.676910,265.574615 210.344650,265.786682 220.997086,265.475037 
	C225.542023,265.342041 226.888290,266.606110 226.869431,271.282043 
	C226.690765,315.593353 226.763077,359.905731 226.784576,404.217773 
	C226.785583,406.308990 226.988556,408.400177 227.104645,410.628906 
	C243.089813,410.628906 258.544678,410.628906 274.396393,410.666412 
M364.913086,200.035721 
	C364.968536,188.052704 365.023987,176.069687 366.004547,164.016541 
	C381.313690,164.016541 396.622833,164.016541 413.338898,164.016541 
	C389.369781,138.984787 366.603363,115.209045 343.733978,91.325737 
	C320.792175,115.356384 298.107544,139.117661 275.422913,162.878922 
	C275.610443,163.284958 275.797943,163.690979 275.985443,164.097000 
	C291.339325,164.097000 306.693207,164.097000 322.628021,164.097000 
	C322.628021,167.229401 322.628052,169.694077 322.628052,172.158768 
	C322.627991,248.959702 322.627838,325.760651 322.628204,402.561584 
	C322.628204,404.060944 322.739807,405.569244 322.614288,407.057800 
	C322.356232,410.118256 323.693481,411.100555 326.700104,411.031921 
	C334.026459,410.864624 341.359283,410.979340 348.689484,410.979980 
	C353.953369,410.980469 359.217224,410.980103 364.982208,410.980103 
	C364.982208,408.454681 364.982208,406.655426 364.982208,404.856171 
	C364.982178,338.550812 364.983704,272.245422 364.973328,205.940063 
	C364.973053,204.278397 364.841553,202.616745 364.913086,200.035721 
M180.136383,163.964874 
	C195.518738,163.964874 210.901093,163.964874 227.692139,163.964874 
	C203.827454,139.027466 181.015717,115.190338 158.135895,91.282066 
	C135.139511,115.381859 112.388939,139.224060 88.687431,164.062820 
	C105.731476,164.062820 121.156494,164.062820 137.085785,164.062820 
	C137.085785,246.444275 137.085785,328.459900 137.085785,410.558167 
	C151.336685,410.558167 165.074417,410.558167 179.313293,410.558167 
	C179.313293,408.636322 179.313293,407.006653 179.313293,405.376984 
	C179.313248,338.415863 179.316086,271.454712 179.297943,204.493591 
	C179.297440,202.670670 179.071320,200.847794 179.217224,198.115967 
	C179.224625,186.782516 179.232010,175.449051 180.136383,163.964874 
z"/>
<path fill="#FDC301" opacity="1.000000" stroke="none" 
	d="
M178.950409,199.024902 
	C179.071320,200.847794 179.297440,202.670670 179.297943,204.493591 
	C179.316086,271.454712 179.313248,338.415863 179.313293,405.376984 
	C179.313293,407.006653 179.313293,408.636322 179.313293,410.558167 
	C165.074417,410.558167 151.336685,410.558167 137.085785,410.558167 
	C137.085785,328.459900 137.085785,246.444275 137.085785,164.062820 
	C121.156494,164.062820 105.731476,164.062820 88.687431,164.062820 
	C112.388939,139.224060 135.139511,115.381859 158.135895,91.282066 
	C181.015717,115.190338 203.827454,139.027466 227.692139,163.964874 
	C210.901093,163.964874 195.518738,163.964874 179.204803,164.003143 
	C166.252167,164.041397 154.231094,164.041397 140.918701,164.041397 
	C142.936172,166.255585 143.940140,167.495911 145.084061,168.589905 
	C151.430511,174.659393 157.705750,180.809631 164.214920,186.700668 
	C168.958939,190.994171 174.026886,194.929764 178.950409,199.024902 
z"/>
<path fill="#4ACE28" opacity="1.000000" stroke="none" 
	d="
M364.771301,200.955093 
	C364.841553,202.616745 364.973053,204.278397 364.973328,205.940063 
	C364.983704,272.245422 364.982178,338.550812 364.982208,404.856171 
	C364.982208,406.655426 364.982208,408.454681 364.982208,410.980103 
	C359.217224,410.980103 353.953369,410.980469 348.689484,410.979980 
	C341.359283,410.979340 334.026459,410.864624 326.700104,411.031921 
	C323.693481,411.100555 322.356232,410.118256 322.614288,407.057800 
	C322.739807,405.569244 322.628204,404.060944 322.628204,402.561584 
	C322.627838,325.760651 322.627991,248.959702 322.628052,172.158768 
	C322.628052,169.694077 322.628021,167.229401 322.628021,164.097000 
	C306.693207,164.097000 291.339325,164.097000 275.985443,164.097000 
	C275.797943,163.690979 275.610443,163.284958 275.422913,162.878922 
	C298.107544,139.117661 320.792175,115.356384 343.733978,91.325737 
	C366.603363,115.209045 389.369781,138.984787 413.338898,164.016541 
	C396.622833,164.016541 381.313690,164.016541 365.070282,164.022202 
	C352.089996,164.027863 340.044006,164.027863 327.997986,164.027863 
	C327.770599,164.566742 327.543243,165.105606 327.315857,165.644485 
	C339.800995,177.414688 352.286163,189.184891 364.771301,200.955093 
z"/>
<path fill="#2995FA" opacity="1.000000" stroke="none" 
	d="
M274.747620,305.052979 
	C274.833160,321.145264 274.967773,337.237457 274.991333,353.329834 
	C275.018555,371.916412 274.947906,390.503113 274.654053,409.609497 
	C274.202789,410.252228 274.073181,410.418793 273.999512,410.628906 
	C258.544678,410.628906 243.089813,410.628906 227.104645,410.628906 
	C226.988556,408.400177 226.785583,406.308990 226.784576,404.217773 
	C226.763077,359.905731 226.690765,315.593353 226.869431,271.282043 
	C226.888290,266.606110 225.542023,265.342041 220.997086,265.475037 
	C210.344650,265.786682 199.676910,265.574615 189.015366,265.574524 
	C187.409317,265.574524 185.803284,265.574524 182.659393,265.574524 
	C206.334808,240.770813 229.000015,217.025452 252.052322,192.874557 
	C275.047119,216.878937 297.798950,240.629684 320.550781,264.380432 
	C320.473541,264.820465 320.396301,265.260468 320.319092,265.700500 
	C305.493622,265.700500 290.668182,265.700500 274.921204,265.821777 
	C259.576141,265.943054 245.152649,265.943054 230.729126,265.943054 
	C230.634338,266.494141 230.539536,267.045227 230.444748,267.596344 
	C238.533371,274.666504 246.543365,281.829376 254.735443,288.777557 
	C261.291382,294.338043 268.068604,299.637604 274.747620,305.052979 
z"/>
<path fill="#2081DB" opacity="1.000000" stroke="none" 
	d="
M274.834106,304.587708 
	C268.068604,299.637604 261.291382,294.338043 254.735443,288.777557 
	C246.543365,281.829376 238.533371,274.666504 230.444748,267.596344 
	C230.539536,267.045227 230.634338,266.494141 230.729126,265.943054 
	C245.152649,265.943054 259.576141,265.943054 274.463440,265.954590 
	C274.924988,278.684875 274.922791,291.403656 274.834106,304.587708 
z"/>
<path fill="#51B346" opacity="1.000000" stroke="none" 
	d="
M364.842194,200.495407 
	C352.286163,189.184891 339.800995,177.414688 327.315857,165.644485 
	C327.543243,165.105606 327.770599,164.566742 327.997986,164.027863 
	C340.044006,164.027863 352.089996,164.027863 364.607727,164.057266 
	C365.023987,176.069687 364.968536,188.052704 364.842194,200.495407 
z"/>
<path fill="#DBA901" opacity="1.000000" stroke="none" 
	d="
M179.083832,198.570435 
	C174.026886,194.929764 168.958939,190.994171 164.214920,186.700668 
	C157.705750,180.809631 151.430511,174.659393 145.084061,168.589905 
	C143.940140,167.495911 142.936172,166.255585 140.918701,164.041397 
	C154.231094,164.041397 166.252167,164.041397 178.756317,164.078491 
	C179.232010,175.449051 179.224625,186.782516 179.083832,198.570435 
z"/>
<path fill="#2081DB" opacity="1.000000" stroke="none" 
	d="
M274.197937,410.647644 
	C274.073181,410.418793 274.202789,410.252228 274.534821,410.064575 
	C274.788208,410.308380 274.693237,410.530548 274.197937,410.647644 
z"/>
</svg>