<svg width="40" height="28" viewBox="0 0 40 28" fill="none" xmlns="http://www.w3.org/2000/svg">
<g clip-path="url(#clip0_7_5086)">
<mask id="mask0_7_5086" style="mask-type:luminance" maskUnits="userSpaceOnUse" x="0" y="0" width="40" height="28">
<path d="M0.00878906 0.0732422H39.8775V27.9766H0.00878906V0.0732422Z" fill="white"/>
</mask>
<g mask="url(#mask0_7_5086)">
<path fill-rule="evenodd" clip-rule="evenodd" d="M16.5979 3.11749C17.8839 1.77771 19.6745 0.946356 21.6547 0.946356C24.2869 0.946356 26.5838 2.4142 27.8065 4.59354C28.9005 4.10468 30.0856 3.85273 31.2839 3.8542C36.0317 3.8542 39.8808 7.73684 39.8808 12.5266C39.8808 17.3163 36.0317 21.1991 31.2839 21.1991C30.7041 21.1991 30.1379 21.1408 29.5902 21.0303C28.5135 22.9511 26.4607 24.2491 24.1053 24.2491C23.1525 24.2504 22.2121 24.0339 21.3558 23.6163C20.2642 26.1846 17.7201 27.9853 14.7558 27.9853C11.6682 27.9853 9.0367 26.0319 8.02732 23.2923C7.57745 23.3872 7.1189 23.435 6.65912 23.4347C2.98307 23.4347 0.0032959 20.4237 0.0032959 16.7096C0.0032959 14.2202 1.3419 12.0469 3.3315 10.8842C2.90996 9.91358 2.69305 8.86644 2.69428 7.80819C2.69428 3.53639 6.16197 0.0732422 10.4395 0.0732422C12.9508 0.0732422 15.1828 1.26709 16.5979 3.11749Z" fill="#00A1E0"/>
</g>
<path fill-rule="evenodd" clip-rule="evenodd" d="M5.77582 14.5478C5.75076 14.6132 5.78475 14.6268 5.79281 14.6384C5.86768 14.6926 5.94373 14.7318 6.0205 14.7759C6.4271 14.9912 6.81142 15.0543 7.21289 15.0543C8.03091 15.0543 8.53904 14.6195 8.53904 13.9191V13.9053C8.53904 13.2577 7.96541 13.0224 7.42783 12.8526L7.35765 12.8299C6.95223 12.6983 6.60234 12.5844 6.60234 12.3173V12.3037C6.60234 12.075 6.80688 11.9069 7.1238 11.9069C7.47618 11.9069 7.89377 12.024 8.16307 12.1727C8.16307 12.1727 8.24248 12.224 8.27135 12.1474C8.28703 12.1059 8.42314 11.7393 8.43765 11.6996C8.45318 11.6567 8.42593 11.6243 8.39794 11.6076C8.0904 11.4202 7.66563 11.2927 7.22593 11.2927L7.14431 11.293C6.3956 11.293 5.87281 11.7458 5.87281 12.3937V12.4076C5.87281 13.0904 6.44952 13.3124 6.98974 13.4666L7.07648 13.4936C7.46988 13.6143 7.80966 13.7187 7.80966 13.9954V14.0092C7.80966 14.2627 7.58886 14.451 7.23325 14.451C7.09538 14.451 6.65523 14.4486 6.17963 14.1478C6.12204 14.1143 6.08922 14.0901 6.04483 14.063C6.02138 14.0488 5.96278 14.0231 5.93728 14.0999L5.77582 14.5478ZM17.7509 14.5478C17.7259 14.6132 17.7598 14.6268 17.7682 14.6384C17.8428 14.6926 17.919 14.7318 17.9956 14.7759C18.4023 14.9912 18.7867 15.0543 19.188 15.0543C20.006 15.0543 20.5143 14.6195 20.5143 13.9191V13.9053C20.5143 13.2577 19.9408 13.0224 19.4031 12.8526L19.3329 12.8299C18.9275 12.6983 18.5774 12.5844 18.5774 12.3173V12.3037C18.5774 12.075 18.7821 11.9069 19.0992 11.9069C19.4514 11.9069 19.8689 12.024 20.1382 12.1727C20.1382 12.1727 20.2176 12.224 20.2466 12.1474C20.2621 12.1059 20.3984 11.7393 20.4127 11.6996C20.4284 11.6567 20.401 11.6243 20.3732 11.6076C20.0655 11.4202 19.6409 11.2927 19.2012 11.2927L19.1194 11.293C18.3708 11.293 17.8481 11.7458 17.8481 12.3937V12.4076C17.8481 13.0904 18.4246 13.3124 18.965 13.4666L19.0516 13.4936C19.4451 13.6143 19.7849 13.7187 19.7849 13.9954V14.0092C19.7849 14.2627 19.564 14.451 19.2086 14.451C19.0705 14.451 18.6303 14.4486 18.1549 14.1478C18.0973 14.1143 18.0636 14.0911 18.0199 14.063C18.0051 14.0536 17.9361 14.0266 17.9125 14.0999L17.7509 14.5478ZM25.926 13.1758C25.926 13.5714 25.8522 13.8838 25.7071 14.104C25.5629 14.3223 25.3453 14.4286 25.0419 14.4286C24.7385 14.4286 24.5221 14.3225 24.3802 14.1043C24.2371 13.8839 24.1644 13.5714 24.1644 13.1758C24.1644 12.7805 24.2371 12.4691 24.3802 12.2511C24.5221 12.035 24.7385 11.9301 25.0419 11.9301C25.3453 11.9301 25.5629 12.0351 25.7071 12.2513C25.8525 12.4691 25.926 12.7805 25.926 13.1758ZM26.6091 12.4422C26.5418 12.2152 26.4374 12.0155 26.2983 11.8489C26.159 11.6819 25.9827 11.5475 25.7738 11.4502C25.5651 11.3528 25.319 11.3034 25.0419 11.3034C24.7648 11.3034 24.5185 11.3528 24.3097 11.4502C24.1011 11.5475 23.9247 11.6819 23.7853 11.8492C23.6464 12.0161 23.5417 12.2155 23.4747 12.4422C23.4081 12.6674 23.3742 12.9143 23.3742 13.1758C23.3742 13.4375 23.4081 13.6845 23.4747 13.9094C23.5417 14.1359 23.6462 14.3355 23.7855 14.5027C23.9248 14.67 24.1017 14.8032 24.31 14.8981C24.519 14.9931 24.7651 15.0414 25.0419 15.0414C25.3188 15.0414 25.5647 14.9931 25.7735 14.8981C25.9821 14.8032 26.1587 14.67 26.2983 14.5027C26.4374 14.3361 26.5418 14.1362 26.6091 13.9094C26.6756 13.6841 26.7094 13.4372 26.7094 13.1758C26.7094 12.9146 26.6756 12.6675 26.6091 12.4422ZM32.216 14.3226C32.1936 14.2562 32.1288 14.2813 32.1288 14.2813C32.0296 14.3192 31.9241 14.3544 31.8113 14.372C31.6976 14.3899 31.5717 14.3988 31.4371 14.3988C31.107 14.3988 30.844 14.3005 30.6563 14.1062C30.4677 13.9118 30.3618 13.5976 30.3629 13.1727C30.364 12.7865 30.4574 12.4955 30.6251 12.2737C30.7912 12.0533 31.045 11.9402 31.3824 11.9402C31.6642 11.9402 31.8791 11.9729 32.1043 12.0435C32.1043 12.0435 32.1578 12.0668 32.1834 11.9963C32.2434 11.8303 32.2876 11.7122 32.3515 11.5298C32.3697 11.4778 32.3251 11.4558 32.3089 11.4495C32.2204 11.4149 32.0113 11.3582 31.8535 11.3343C31.7059 11.3118 31.5335 11.3001 31.3411 11.3001C31.0544 11.3001 30.7987 11.3491 30.5801 11.4464C30.3619 11.5436 30.1768 11.6778 30.0302 11.8447C29.8835 12.0118 29.7719 12.2116 29.698 12.4381C29.624 12.6634 29.5867 12.9107 29.5867 13.173C29.5867 13.7393 29.7395 14.1969 30.0409 14.5321C30.3433 14.8686 30.7969 15.0394 31.389 15.0394C31.7388 15.0394 32.0976 14.9686 32.356 14.8669C32.356 14.8669 32.4053 14.8432 32.3839 14.7858L32.216 14.3226ZM33.4107 12.7965C33.4434 12.5765 33.5036 12.3938 33.5975 12.2511C33.7392 12.035 33.9549 11.9159 34.2583 11.9159C34.5619 11.9159 34.7619 12.0351 34.9061 12.2513C35.0013 12.3941 35.0429 12.5844 35.0592 12.7968L33.4107 12.7965ZM35.7095 12.3134C35.6513 12.0945 35.508 11.8734 35.4138 11.7723C35.2651 11.612 35.1194 11.4998 34.9748 11.4378C34.7655 11.3488 34.5404 11.3031 34.313 11.3034C34.0245 11.3034 33.7623 11.3522 33.5497 11.4518C33.3369 11.5518 33.1579 11.6883 33.0177 11.858C32.8772 12.0275 32.7719 12.2293 32.7046 12.4581C32.6372 12.6857 32.6032 12.9338 32.6032 13.1957C32.6032 13.4621 32.6385 13.7105 32.708 13.9338C32.7782 14.159 32.8908 14.3566 33.0429 14.5212C33.1949 14.6863 33.3905 14.8158 33.6242 14.9061C33.8567 14.9962 34.1392 15.0429 34.4632 15.0419C35.131 15.0397 35.4822 14.8908 35.6273 14.8107C35.6529 14.7963 35.6771 14.7716 35.6469 14.7002L35.4957 14.277C35.4725 14.2139 35.4086 14.2368 35.4086 14.2368C35.2429 14.2986 35.0084 14.4089 34.4598 14.4077C34.1014 14.4072 33.8359 14.3012 33.669 14.1358C33.4983 13.9666 33.4145 13.7181 33.4003 13.367L35.7112 13.3688C35.7112 13.3688 35.7722 13.3682 35.7785 13.3087C35.781 13.2841 35.8577 12.834 35.7095 12.3134ZM14.8995 12.7965C14.9322 12.5765 14.9925 12.3938 15.0863 12.2511C15.2281 12.035 15.4435 11.9159 15.7472 11.9159C16.0508 11.9159 16.2508 12.0351 16.395 12.2513C16.4901 12.3941 16.5317 12.5844 16.548 12.7968L14.8995 12.7965ZM17.1982 12.3134C17.1402 12.0945 16.9968 11.8734 16.9027 11.7723C16.754 11.612 16.6085 11.4998 16.4637 11.4378C16.2544 11.3489 16.0293 11.3032 15.8019 11.3034C15.5134 11.3034 15.2513 11.3522 15.0387 11.4518C14.8258 11.5518 14.6469 11.6883 14.5064 11.858C14.3661 12.0275 14.2608 12.2293 14.1933 12.4581C14.126 12.6857 14.0922 12.9338 14.0922 13.1957C14.0922 13.4621 14.1272 13.7105 14.1971 13.9338C14.2671 14.159 14.3799 14.3566 14.5317 14.5212C14.6838 14.6863 14.8793 14.8158 15.113 14.9061C15.3456 14.9962 15.6278 15.0429 15.9521 15.0419C16.6198 15.0397 16.9711 14.8908 17.1162 14.8107C17.1417 14.7963 17.166 14.7716 17.1357 14.7002L16.9846 14.277C16.9613 14.2139 16.8974 14.2368 16.8974 14.2368C16.7319 14.2986 16.4973 14.4089 15.9486 14.4077C15.5903 14.4072 15.3247 14.3012 15.1578 14.1358C14.9872 13.9666 14.9033 13.7181 14.8891 13.367L17.2001 13.3688C17.2001 13.3688 17.2611 13.3682 17.2674 13.3087C17.2699 13.2841 17.3467 12.834 17.1982 12.3134ZM9.90358 14.31C9.81289 14.2376 9.80029 14.2199 9.77025 14.1729C9.72439 14.1021 9.70095 14.0013 9.70095 13.8722C9.70095 13.6693 9.76834 13.5231 9.90725 13.4249C9.90578 13.4252 10.1065 13.2517 10.5776 13.2579C10.7877 13.2616 10.9974 13.2795 11.2051 13.3113V14.3619H11.2054C11.2054 14.3619 10.9116 14.425 10.5809 14.445C10.1109 14.4732 9.90212 14.3096 9.90358 14.31ZM10.8233 12.6857C10.7295 12.6788 10.6081 12.6754 10.4624 12.6754C10.2645 12.6754 10.073 12.7001 9.89318 12.7484C9.71267 12.797 9.55032 12.8724 9.41069 12.9721C9.27114 13.0718 9.15639 13.2023 9.0753 13.3534C8.9934 13.5059 8.95164 13.6851 8.95164 13.886C8.95164 14.091 8.98725 14.2686 9.05758 14.4136C9.12638 14.5574 9.22997 14.6818 9.35897 14.7755C9.48747 14.869 9.646 14.9376 9.82988 14.9795C10.0114 15.0209 10.2171 15.0419 10.4419 15.0419C10.6793 15.0419 10.9153 15.022 11.144 14.9834C11.3388 14.9499 11.5329 14.9121 11.7261 14.8703C11.8032 14.8526 11.8882 14.8293 11.8882 14.8293C11.9453 14.8148 11.9409 14.7537 11.9409 14.7537L11.9396 12.64C11.9396 12.1764 11.816 11.8329 11.5723 11.6196C11.3298 11.4073 10.9727 11.3001 10.5108 11.3001C10.3373 11.3001 10.0586 11.3235 9.89128 11.357C9.89128 11.357 9.38666 11.4549 9.17889 11.6177C9.17889 11.6177 9.13318 11.6458 9.15809 11.7096L9.32175 12.1491C9.34212 12.2061 9.39765 12.1866 9.39765 12.1866C9.39765 12.1866 9.41509 12.1798 9.4356 12.1676C9.88014 11.9258 10.4426 11.933 10.4426 11.933C10.6923 11.933 10.8847 11.9836 11.0139 12.0825C11.1401 12.1793 11.2041 12.3251 11.2041 12.6332V12.731C11.0059 12.7022 10.8233 12.6857 10.8233 12.6857ZM29.4658 11.4949C29.4691 11.4872 29.4709 11.4789 29.4709 11.4705C29.471 11.462 29.4693 11.4537 29.4661 11.4459C29.4628 11.4382 29.4581 11.4311 29.452 11.4253C29.446 11.4194 29.4389 11.4148 29.4311 11.4117C29.3916 11.3968 29.1952 11.3553 29.0437 11.3459C28.7531 11.3277 28.5921 11.3767 28.4476 11.4417C28.3043 11.5064 28.1456 11.6108 28.0571 11.7299L28.0569 11.448C28.0569 11.4094 28.0295 11.3781 27.9905 11.3781H27.3979C27.3596 11.3781 27.3317 11.4094 27.3317 11.448V14.8959C27.3318 14.9146 27.3392 14.9324 27.3523 14.9455C27.3655 14.9587 27.3833 14.9661 27.4019 14.9661H28.0092C28.0278 14.9661 28.0456 14.9587 28.0588 14.9455C28.0719 14.9324 28.0793 14.9145 28.0793 14.8959V13.1736C28.0793 12.9422 28.1048 12.7118 28.1556 12.5669C28.2057 12.4234 28.2738 12.3091 28.3582 12.2269C28.4382 12.1476 28.5361 12.0887 28.6437 12.0552C28.7445 12.0263 28.8488 12.0116 28.9537 12.0116C29.0746 12.0116 29.2076 12.0426 29.2076 12.0426C29.2522 12.0476 29.2769 12.0203 29.292 11.9802C29.3317 11.8746 29.4443 11.5579 29.4658 11.4949Z" fill="#FFFFFE"/>
<path fill-rule="evenodd" clip-rule="evenodd" d="M23.7657 9.89724C23.6907 9.87458 23.6145 9.85648 23.5373 9.84303C23.4335 9.82571 23.3284 9.81757 23.2232 9.81871C22.8051 9.81871 22.4756 9.9368 22.2443 10.1701C22.0145 10.4016 21.8582 10.7542 21.7798 11.2183L21.7515 11.3749H21.2268C21.2268 11.3749 21.1628 11.3723 21.1493 11.4422L21.0632 11.9227C21.0572 11.9687 21.0769 11.9975 21.1385 11.9972H21.6492L21.131 14.8899C21.0904 15.1229 21.044 15.3145 20.9925 15.4597C20.9418 15.603 20.8923 15.7104 20.8314 15.7884C20.7723 15.8638 20.7163 15.9194 20.6198 15.9518C20.5401 15.9786 20.4484 15.9909 20.3478 15.9909C20.2919 15.9909 20.2174 15.9815 20.1625 15.9705C20.1076 15.9597 20.079 15.9474 20.0378 15.9301C20.0378 15.9301 19.9779 15.9072 19.9543 15.9673C19.9351 16.0164 19.799 16.3907 19.7829 16.437C19.7665 16.4827 19.7895 16.5188 19.8185 16.5292C19.8865 16.5535 19.937 16.569 20.0296 16.5909C20.1583 16.6212 20.2667 16.6231 20.3682 16.6231C20.581 16.6231 20.7748 16.5932 20.9355 16.5352C21.0973 16.4767 21.2381 16.3749 21.3626 16.237C21.4973 16.0883 21.582 15.9326 21.663 15.7201C21.7432 15.5096 21.8114 15.2482 21.8661 14.9435L22.3868 11.9972H23.1481C23.1481 11.9972 23.2123 11.9995 23.2257 11.9299L23.3118 11.4493C23.3178 11.4033 23.2982 11.3746 23.2363 11.3749H22.4974C22.5011 11.3582 22.5347 11.0983 22.6195 10.8536C22.6557 10.7491 22.7238 10.6649 22.7815 10.607C22.8354 10.5519 22.9018 10.5106 22.9751 10.4865C23.0554 10.4617 23.1391 10.4497 23.2232 10.4508C23.2928 10.4508 23.361 10.4591 23.4131 10.47C23.4847 10.4852 23.5125 10.4933 23.5313 10.4989C23.6066 10.5219 23.6167 10.4996 23.6315 10.4631L23.8082 9.97783C23.8264 9.92567 23.7821 9.90369 23.7657 9.89724ZM13.4399 14.8961C13.4399 14.9348 13.4123 14.9663 13.3736 14.9663H12.7607C12.7219 14.9663 12.6944 14.9348 12.6944 14.8961V9.96303C12.6944 9.9245 12.7219 9.89329 12.7607 9.89329H13.3736C13.4123 9.89329 13.4399 9.9245 13.4399 9.96303V14.8961Z" fill="#FFFFFE"/>
</g>
<defs>
<clipPath id="clip0_7_5086">
<rect width="40" height="27.9854" fill="white"/>
</clipPath>
</defs>
</svg>
