<svg width="142" height="25" viewBox="0 0 142 25" fill="none" xmlns="http://www.w3.org/2000/svg">
<path d="M14.2192 2.88507L16.28 3.70937L14.7688 5.70144C10.2626 4.10779 7.3905 6.56339 6.38835 7.89959C5.1519 9.5482 4.90126 11.4034 5.01451 12.7767C6.15773 19.1653 11.5502 19.5847 14.5771 18.547C14.6921 18.5076 14.8191 18.5445 14.8926 18.6414L16.1308 20.2736C16.1959 20.3594 16.1422 20.4862 16.0359 20.5033C15.5708 20.5785 14.5724 20.8014 14.2192 21.3632C13.8328 21.9782 14.0819 23.2179 14.0819 23.2179L13.9445 23.7675C13.9041 23.9289 13.759 24.0422 13.5926 24.0422H10.3464C10.1857 24.0422 10.0301 23.9859 9.90667 23.883L9.77718 23.7751C9.71874 23.7264 9.68311 23.6557 9.67877 23.5797L9.55778 21.4624C9.55189 21.3594 9.48878 21.2683 9.39436 21.2267L7.21266 20.2642C7.21266 20.2642 7.62481 20.0581 6.93789 20.2642C6.25097 20.4702 5.42667 21.638 5.42667 21.638L4.90797 21.8455C4.80592 21.8863 4.68935 21.8624 4.61163 21.7847L2.12945 19.3025V18.8903L3.77806 16.8983L2.67899 14.3566L0.206076 14.2193L0 13.8758V10.0977C0.109907 9.82297 1.83179 9.75427 2.67899 9.75427C2.56908 9.3696 3.36591 7.89959 3.77806 7.21267L2.12945 5.42667V4.94583L4.67105 2.33553H5.08321L7.07527 3.84676L9.61688 2.74768L9.68557 0.618229L10.029 0H13.601L13.9445 0.274768L14.2192 2.88507Z" fill="url(#paint0_linear_14_8751)"/>
<path d="M27.5774 19.0653C26.7399 19.0653 25.9449 18.8954 25.1924 18.5555C24.452 18.2157 23.7966 17.7484 23.2261 17.1537C22.6678 16.5468 22.2308 15.8428 21.9153 15.0418C21.5997 14.2407 21.4419 13.3729 21.4419 12.4383C21.4419 11.5523 21.5997 10.7208 21.9153 9.94405C22.2308 9.15512 22.6738 8.46329 23.2443 7.86855C23.8148 7.27382 24.4823 6.80653 25.247 6.46668C26.0116 6.12683 26.843 5.95691 27.7412 5.95691C28.9549 5.95691 29.9927 6.21786 30.8545 6.73977C31.7283 7.24954 32.3838 7.92924 32.8207 8.77886L30.9455 10.1625C30.6178 9.51924 30.1566 9.02768 29.5618 8.68783C28.9792 8.34798 28.342 8.17806 27.6502 8.17806C27.104 8.17806 26.6064 8.29336 26.1573 8.52397C25.7082 8.75458 25.3198 9.07016 24.9921 9.47069C24.6644 9.87123 24.4095 10.3324 24.2274 10.8544C24.0575 11.3763 23.9725 11.9285 23.9725 12.5111C23.9725 13.1301 24.0636 13.7006 24.2456 14.2225C24.4398 14.7444 24.7069 15.1996 25.0467 15.5879C25.3987 15.9763 25.8053 16.2859 26.2665 16.5165C26.7277 16.7349 27.2375 16.8442 27.7958 16.8442C28.4512 16.8442 29.0763 16.6742 29.6711 16.3344C30.2779 15.9946 30.8423 15.4969 31.3642 14.8415V17.3175C30.284 18.4827 29.0217 19.0653 27.5774 19.0653ZM31.1822 14.1679H28.5787V12.3291H33.2577V18.9743H31.1822V14.1679Z" fill="black"/>
<path d="M45.5772 19.0655V10.5815L42.2637 16.899H40.8618L37.5483 10.5815V19.0655H35.0359V6.13916H37.7304L41.5537 13.4944L45.4134 6.13916H48.0897V19.0655H45.5772Z" fill="black"/>
<path d="M60.2818 15.7338C60.2818 16.462 60.0937 17.075 59.7174 17.5726C59.3412 18.0581 58.8314 18.4283 58.1881 18.6832C57.557 18.9381 56.8651 19.0655 56.1126 19.0655H49.8679V6.13916H56.7862C57.3931 6.13916 57.915 6.30302 58.352 6.63073C58.8011 6.9463 59.1409 7.35897 59.3715 7.86874C59.6143 8.36638 59.7356 8.88829 59.7356 9.43447C59.7356 10.0535 59.5778 10.6421 59.2623 11.2005C58.9467 11.7588 58.4855 12.1715 57.8786 12.4385C58.619 12.657 59.2016 13.0514 59.6264 13.6219C60.0633 14.1923 60.2818 14.8963 60.2818 15.7338ZM57.7512 15.2604C57.7512 14.9327 57.6844 14.6414 57.5509 14.3865C57.4174 14.1195 57.2353 13.9132 57.0047 13.7675C56.7862 13.6097 56.5314 13.5309 56.2401 13.5309H52.3804V16.9354H56.1126C56.4161 16.9354 56.6891 16.8626 56.9319 16.7169C57.1868 16.5591 57.387 16.3528 57.5327 16.0979C57.6783 15.843 57.7512 15.5639 57.7512 15.2604ZM52.3804 8.28749V11.5464H55.7303C56.0094 11.5464 56.2643 11.4796 56.4949 11.3461C56.7256 11.2126 56.9076 11.0245 57.0411 10.7817C57.1868 10.539 57.2596 10.2477 57.2596 9.90783C57.2596 9.58012 57.1928 9.29489 57.0593 9.05214C56.938 8.80939 56.768 8.62126 56.5496 8.48775C56.3432 8.35424 56.1065 8.28749 55.8395 8.28749H52.3804Z" fill="black"/>
<path d="M76.7503 15.7161C76.7503 16.4482 76.5612 17.0643 76.183 17.5646C75.8048 18.0526 75.2923 18.4247 74.6457 18.6809C74.0112 18.9372 73.3158 19.0653 72.5593 19.0653H66.282V6.07129H73.2365C73.8465 6.07129 74.3712 6.236 74.8104 6.56543C75.2618 6.88265 75.6035 7.29748 75.8353 7.80992C76.0793 8.31016 76.2013 8.8348 76.2013 9.38384C76.2013 10.0061 76.0427 10.5978 75.7255 11.1591C75.4082 11.7203 74.9446 12.1351 74.3346 12.4036C75.0788 12.6232 75.6645 13.0197 76.0915 13.5932C76.5307 14.1666 76.7503 14.8742 76.7503 15.7161ZM74.2065 15.2403C74.2065 14.9109 74.1394 14.618 74.0051 14.3618C73.8709 14.0934 73.6879 13.886 73.4561 13.7396C73.2365 13.581 72.9803 13.5016 72.6874 13.5016H68.8076V16.924H72.5593C72.8644 16.924 73.1389 16.8508 73.3829 16.7044C73.6391 16.5458 73.8404 16.3384 73.9868 16.0821C74.1333 15.8259 74.2065 15.5453 74.2065 15.2403ZM68.8076 8.23085V11.5068H72.175C72.4556 11.5068 72.7118 11.4397 72.9437 11.3055C73.1755 11.1713 73.3585 10.9822 73.4927 10.7381C73.6391 10.4941 73.7123 10.2013 73.7123 9.85967C73.7123 9.53025 73.6452 9.24353 73.511 8.99951C73.389 8.75549 73.2182 8.56638 72.9986 8.43217C72.7912 8.29796 72.5532 8.23085 72.2848 8.23085H68.8076Z" fill="black"/>
<path d="M84.2295 19.0653C83.1925 19.0653 82.3079 18.8945 81.5759 18.5529C80.856 18.1991 80.2704 17.7171 79.8189 17.1071C79.3797 16.497 79.0564 15.8077 78.849 15.039C78.6415 14.2582 78.5378 13.4468 78.5378 12.605V5.97986H81.0634V12.605C81.0634 13.1418 81.1122 13.6664 81.2098 14.1789C81.3196 14.6791 81.4966 15.1305 81.7406 15.5332C81.9846 15.9358 82.3079 16.253 82.7105 16.4848C83.1132 16.7167 83.6134 16.8326 84.2112 16.8326C84.8213 16.8326 85.3276 16.7167 85.7303 16.4848C86.1451 16.2408 86.4684 15.9175 86.7002 15.5149C86.9442 15.1122 87.1212 14.6608 87.231 14.1606C87.3408 13.6481 87.3957 13.1296 87.3957 12.605V5.97986H89.903V12.605C89.903 13.4956 89.7931 14.3314 89.5735 15.1122C89.3661 15.8931 89.0306 16.5824 88.567 17.1803C88.1155 17.7659 87.5299 18.2296 86.81 18.5712C86.0902 18.9006 85.23 19.0653 84.2295 19.0653Z" fill="black"/>
<path d="M91.6907 19.0653V6.07129H94.2163V19.0653H91.6907Z" fill="black"/>
<path d="M96.0042 19.0653V6.07129H98.5297V16.8508H105.155V19.0653H96.0042Z" fill="black"/>
<path d="M106.942 19.0653V6.07129H111.664C113.079 6.07129 114.263 6.36411 115.215 6.94976C116.166 7.5232 116.88 8.30406 117.356 9.29233C117.832 10.2684 118.07 11.3543 118.07 12.55C118.07 13.8677 117.807 15.0146 117.283 15.9906C116.758 16.9667 116.014 17.7232 115.05 18.26C114.098 18.7968 112.97 19.0653 111.664 19.0653H106.942ZM115.526 12.55C115.526 11.7081 115.373 10.97 115.068 10.3355C114.763 9.68886 114.324 9.18862 113.75 8.8348C113.177 8.46877 112.482 8.28575 111.664 8.28575H109.468V16.8508H111.664C112.494 16.8508 113.195 16.6678 113.769 16.3018C114.342 15.9235 114.775 15.4111 115.068 14.7644C115.373 14.1056 115.526 13.3674 115.526 12.55Z" fill="black"/>
<path d="M128.879 16.8508V19.0653H119.857V6.07129H128.715V8.28575H122.382V11.4153H127.854V13.465H122.382V16.8508H128.879Z" fill="black"/>
<path d="M130.667 19.0653V6.07129H136.414C137.011 6.07129 137.561 6.1933 138.061 6.43732C138.573 6.68133 139.012 7.01076 139.378 7.42559C139.757 7.84042 140.043 8.30406 140.239 8.8165C140.446 9.32893 140.55 9.85357 140.55 10.3904C140.55 10.9395 140.452 11.4702 140.257 11.9826C140.074 12.4829 139.805 12.9221 139.452 13.3003C139.098 13.6786 138.683 13.9714 138.207 14.1788L141.172 19.0653H138.39L135.718 14.7095H133.193V19.0653H130.667ZM133.193 12.4951H136.359C136.676 12.4951 136.957 12.4036 137.201 12.2205C137.445 12.0253 137.64 11.7691 137.786 11.4519C137.933 11.1347 138.006 10.7808 138.006 10.3904C138.006 9.97558 137.92 9.61566 137.75 9.31063C137.579 8.99341 137.359 8.74329 137.091 8.56028C136.835 8.37726 136.554 8.28575 136.249 8.28575H133.193V12.4951Z" fill="black"/>
<defs>
<linearGradient id="paint0_linear_14_8751" x1="8.14" y1="0" x2="8.14" y2="24.0422" gradientUnits="userSpaceOnUse">
<stop stop-color="#958CF9"/>
<stop offset="0.847875" stop-color="#595495"/>
<stop offset="1" stop-color="#3B3863"/>
</linearGradient>
</defs>
</svg>
