<svg width="200" height="101" viewBox="0 0 200 101" fill="none" xmlns="http://www.w3.org/2000/svg">
<path d="M59.6642 12.1058L68.3112 15.5646L61.9701 23.9233C43.062 17.2363 31.0107 27.54 26.8057 33.1467C21.6175 40.0643 20.5658 47.8488 21.041 53.6112C25.838 80.4176 48.4649 82.1774 61.1658 77.8233C61.6482 77.6579 62.1814 77.813 62.4896 78.2193L67.6853 85.0682C67.9584 85.4282 67.7332 85.96 67.2871 86.0322C65.3355 86.3477 61.1459 87.2827 59.6642 89.6403C58.0426 92.2205 59.0878 97.4226 59.0878 97.4226L58.5113 99.7284C58.3419 100.406 57.7331 100.881 57.0347 100.881H43.4138C42.7395 100.881 42.0866 100.645 41.5686 100.213L41.0253 99.7605C40.7801 99.5562 40.6305 99.2593 40.6123 98.9406L40.1046 90.0564C40.0799 89.6241 39.8151 89.2421 39.419 89.0673L30.2645 85.0286C30.2645 85.0286 31.9939 84.1639 29.1115 85.0286C26.2292 85.8933 22.7704 90.7932 22.7704 90.7932L20.5939 91.6638C20.1657 91.8351 19.6766 91.7347 19.3505 91.4086L8.93523 80.9933V79.2639L15.8528 70.9052L11.2411 60.2406L0.864699 59.6641L0 58.223V42.3702C0.461173 41.2172 7.68622 40.929 11.2411 40.929C10.7799 39.3149 14.1234 33.1467 15.8528 30.2644L8.93523 22.7704V20.7527L19.5998 9.7999H21.3292L29.688 16.141L40.3526 11.5293L40.6409 2.59409L42.082 0H57.0701L58.5113 1.15293L59.6642 12.1058Z" fill="white"/>
<path d="M184.117 75.5169V55.8709H192.806C193.71 55.8709 194.54 56.0554 195.296 56.4243C196.071 56.7933 196.735 57.2913 197.288 57.9185C197.86 58.5457 198.294 59.2467 198.589 60.0215C198.902 60.7963 199.059 61.5895 199.059 62.4011C199.059 63.2312 198.912 64.0337 198.616 64.8085C198.34 65.5648 197.934 66.2289 197.399 66.8007C196.864 67.3726 196.237 67.8153 195.517 68.1289L200 75.5169H195.794L191.754 68.9313H187.936V75.5169H184.117ZM187.936 65.5832H192.723C193.202 65.5832 193.627 65.4449 193.995 65.1682C194.364 64.873 194.66 64.4856 194.881 64.006C195.102 63.5264 195.213 62.9914 195.213 62.4011C195.213 61.7739 195.084 61.2298 194.826 60.7686C194.567 60.289 194.235 59.9108 193.829 59.6341C193.442 59.3574 193.018 59.219 192.557 59.219H187.936V65.5832Z" fill="white"/>
<path d="M180.587 72.1688V75.5169H166.946V55.8709H180.338V59.219H170.764V63.9507H179.038V67.0498H170.764V72.1688H180.587Z" fill="white"/>
<path d="M146.586 75.5169V55.8709H153.725C155.864 55.8709 157.654 56.3137 159.093 57.1991C160.531 58.0661 161.611 59.2467 162.33 60.7409C163.049 62.2167 163.409 63.8584 163.409 65.6662C163.409 67.6585 163.013 69.3925 162.219 70.8683C161.426 72.344 160.301 73.4877 158.844 74.2994C157.405 75.111 155.698 75.5169 153.725 75.5169H146.586ZM159.563 65.6662C159.563 64.3934 159.332 63.2774 158.871 62.3181C158.41 61.3404 157.746 60.5841 156.879 60.0492C156.012 59.4958 154.96 59.219 153.725 59.219H150.404V72.1688H153.725C154.979 72.1688 156.04 71.8921 156.907 71.3387C157.774 70.7668 158.428 69.992 158.871 69.0143C159.332 68.0182 159.563 66.9022 159.563 65.6662Z" fill="white"/>
<path d="M129.873 75.5169V55.8709H133.692V72.1688H143.708V75.5169H129.873Z" fill="white"/>
<path d="M121.402 75.5169V55.8709H125.221V75.5169H121.402Z" fill="white"/>
<path d="M108.423 75.6552C106.855 75.6552 105.518 75.3969 104.411 74.8804C103.322 74.3455 102.437 73.6168 101.754 72.6945C101.09 71.7721 100.601 70.7299 100.288 69.5677C99.9743 68.3871 99.8175 67.1604 99.8175 65.8876V55.8709H103.636V65.8876C103.636 66.6992 103.71 67.4925 103.857 68.2672C104.023 69.0235 104.291 69.7061 104.66 70.3148C105.029 70.9236 105.518 71.4032 106.126 71.7537C106.735 72.1042 107.491 72.2794 108.395 72.2794C109.318 72.2794 110.083 72.1042 110.692 71.7537C111.319 71.3847 111.808 70.8959 112.158 70.2872C112.527 69.6784 112.795 68.9959 112.961 68.2396C113.127 67.4648 113.21 66.6808 113.21 65.8876V55.8709H117.001V65.8876C117.001 67.2342 116.835 68.4978 116.503 69.6784C116.189 70.859 115.682 71.9013 114.981 72.8051C114.298 73.6906 113.413 74.3916 112.324 74.9081C111.236 75.4062 109.936 75.6552 108.423 75.6552Z" fill="white"/>
<path d="M96.5623 70.4532C96.5623 71.56 96.2764 72.4916 95.7045 73.2479C95.1326 73.9858 94.3579 74.5484 93.3802 74.9358C92.421 75.3232 91.3695 75.5169 90.2258 75.5169H80.7349V55.8709H91.2496C92.1719 55.8709 92.9651 56.12 93.6292 56.618C94.3118 57.0977 94.8283 57.7248 95.1788 58.4996C95.5477 59.2559 95.7322 60.0492 95.7322 60.8793C95.7322 61.8201 95.4924 62.7147 95.0127 63.5633C94.5331 64.4118 93.8321 65.039 92.9098 65.4449C94.0351 65.7769 94.9205 66.3764 95.5661 67.2434C96.2302 68.1104 96.5623 69.1804 96.5623 70.4532ZM92.7161 69.7338C92.7161 69.2357 92.6146 68.793 92.4117 68.4056C92.2088 67.9998 91.9321 67.6862 91.5816 67.4648C91.2496 67.225 90.8622 67.1051 90.4195 67.1051H84.5534V72.2794H90.2258C90.687 72.2794 91.102 72.1688 91.4709 71.9474C91.8583 71.7076 92.1627 71.394 92.3841 71.0066C92.6054 70.6192 92.7161 70.195 92.7161 69.7338ZM84.5534 59.136V64.089H89.6447C90.069 64.089 90.4564 63.9876 90.8069 63.7847C91.1573 63.5817 91.434 63.2958 91.637 62.9269C91.8583 62.5579 91.969 62.1152 91.969 61.5987C91.969 61.1006 91.8676 60.6671 91.6646 60.2982C91.4802 59.9293 91.2219 59.6433 90.8899 59.4404C90.5763 59.2375 90.2166 59.136 89.8107 59.136H84.5534Z" fill="white"/>
<path d="M141.661 41.63C141.661 42.7368 141.375 43.6684 140.804 44.4247C140.232 45.1626 139.457 45.7252 138.479 46.1126C137.52 46.5 136.469 46.6937 135.325 46.6937H125.834V27.0478H136.349C137.271 27.0478 138.064 27.2968 138.728 27.7949C139.411 28.2745 139.927 28.9017 140.278 29.6764C140.647 30.4328 140.831 31.226 140.831 32.0561C140.831 32.9969 140.591 33.8916 140.112 34.7401C139.632 35.5887 138.931 36.2159 138.009 36.6217C139.134 36.9537 140.02 37.5533 140.665 38.4203C141.329 39.2873 141.661 40.3572 141.661 41.63ZM137.815 40.9106C137.815 40.4125 137.714 39.9698 137.511 39.5824C137.308 39.1766 137.031 38.863 136.681 38.6416C136.349 38.4018 135.961 38.2819 135.519 38.2819H129.652V43.4563H135.325C135.786 43.4563 136.201 43.3456 136.57 43.1242C136.957 42.8844 137.262 42.5708 137.483 42.1834C137.705 41.796 137.815 41.3718 137.815 40.9106ZM129.652 30.3129V35.2658H134.744C135.168 35.2658 135.555 35.1644 135.906 34.9615C136.256 34.7586 136.533 34.4726 136.736 34.1037C136.957 33.7348 137.068 33.292 137.068 32.7755C137.068 32.2774 136.967 31.8439 136.764 31.475C136.579 31.1061 136.321 30.8201 135.989 30.6172C135.675 30.4143 135.316 30.3129 134.91 30.3129H129.652Z" fill="white"/>
<path d="M117.359 46.6937V33.7993L112.323 43.4009H110.193L105.157 33.7993V46.6937H101.338V27.0478H105.433L111.244 38.2266L117.11 27.0478H121.178V46.6937H117.359Z" fill="white"/>
<path d="M88.899 46.832C87.6262 46.832 86.4179 46.5738 85.2742 46.0572C84.1489 45.5407 83.1528 44.8305 82.2858 43.9266C81.4372 43.0043 80.7731 41.9344 80.2935 40.7169C79.8139 39.4994 79.5741 38.1804 79.5741 36.76C79.5741 35.4134 79.8139 34.1498 80.2935 32.9692C80.7731 31.7701 81.4465 30.7186 82.3135 29.8148C83.1805 28.9109 84.195 28.2006 85.3572 27.6841C86.5194 27.1676 87.783 26.9094 89.148 26.9094C90.9927 26.9094 92.5699 27.306 93.8797 28.0992C95.2078 28.874 96.204 29.907 96.8681 31.1983L94.018 33.3012C93.5199 32.3235 92.819 31.5764 91.9151 31.0599C91.0296 30.5434 90.0612 30.2851 89.0097 30.2851C88.1796 30.2851 87.4232 30.4604 86.7407 30.8109C86.0582 31.1614 85.4679 31.641 84.9698 32.2497C84.4717 32.8585 84.0844 33.5595 83.8077 34.3527C83.5494 35.1459 83.4203 35.9852 83.4203 36.8707C83.4203 37.8115 83.5586 38.6785 83.8353 39.4717C84.1305 40.2649 84.5363 40.9567 85.0528 41.547C85.5878 42.1373 86.2058 42.6077 86.9067 42.9582C87.6077 43.2902 88.3825 43.4562 89.231 43.4562C90.2272 43.4562 91.1772 43.198 92.0811 42.6815C93.0034 42.1649 93.8612 41.4086 94.6544 40.4125V44.1757C93.0127 45.9466 91.0942 46.832 88.899 46.832ZM94.3777 39.3887H90.4209V36.594H97.5321V46.6937H94.3777V39.3887Z" fill="white"/>
</svg>
